<svg viewBox="0 0 22 22" fill="none">
<path fill-rule="evenodd" clip-rule="evenodd" 
d="M18.3865 6.79088C18.1126 6.31132 18.2793 5.70049 18.7589 5.42656C19.2384 5.15263 19.8493 5.31933 20.1232 5.79889C21.0208 7.37034 21.5 9.15146 21.5 11C21.5 16.799 16.799 21.5 11 21.5C5.20101 21.5 0.5 16.799 0.5 11C0.5 5.20101 5.20101 0.5 11 0.5C12.8542 0.5 14.6406 0.982129 16.2154 1.88499C16.6945 2.15968 16.8603 2.77077 16.5856 3.2499C16.3109 3.72903 15.6998 3.89477 15.2207 3.62008C13.9466 2.88967 12.5029 2.5 11 2.5C6.30558 2.5 2.5 6.30558 2.5 11C2.5 15.6944 6.30558 19.5 11 19.5C15.6944 19.5 19.5 15.6944 19.5 11C19.5 9.50172 19.1127 8.06217 18.3865 6.79088ZM13.2929 7.29289C13.6834 6.90237 14.3166 6.90237 14.7071 7.29289C15.0976 7.68342 15.0976 8.31658 14.7071 8.70711L12.4142 11L14.7071 13.2929C15.0976 13.6834 15.0976 14.3166 14.7071 14.7071C14.3166 15.0976 13.6834 15.0976 13.2929 14.7071L11 12.4142L8.70711 14.7071C8.31658 15.0976 7.68342 15.0976 7.29289 14.7071C6.90237 14.3166 6.90237 13.6834 7.29289 13.2929L9.58579 11L7.29289 8.70711C6.90237 8.31658 6.90237 7.68342 7.29289 7.29289C7.68342 6.90237 8.31658 6.90237 8.70711 7.29289L11 9.58579L13.2929 7.29289Z" fill="#FF5252"/>
</svg>
