<svg viewBox="0 0 22 22" fill="none">
<path fill-rule="evenodd" clip-rule="evenodd" 
d="M18.7589 5.42656C18.2793 5.70049 18.1126 6.31132 18.3865 6.79088C19.1127 8.06217 19.5 9.50172 19.5 11C19.5 15.6944 15.6944 19.5 11 19.5C6.30558 19.5 2.5 15.6944 2.5 11C2.5 6.30558 6.30558 2.5 11 2.5C12.5029 2.5 13.9466 2.88967 15.2207 3.62008C15.6998 3.89477 16.3109 3.72903 16.5856 3.2499C16.8603 2.77077 16.6945 2.15968 16.2154 1.88499C14.6406 0.982129 12.8542 0.5 11 0.5C5.20101 0.5 0.5 5.20101 0.5 11C0.5 16.799 5.20101 21.5 11 21.5C16.799 21.5 21.5 16.799 21.5 11C21.5 9.15146 21.0208 7.37034 20.1232 5.79889C19.8493 5.31933 19.2384 5.15263 18.7589 5.42656ZM10 12.5858L14.2929 8.29291C14.6834 7.90236 15.3166 7.90236 15.7071 8.29291C16.0976 8.68346 16.0976 9.31661 15.7071 9.70711L10.7071 14.7071C10.5119 14.9024 10.256 15 10 15C9.74405 15 9.48815 14.9024 9.2929 14.7071L6.29291 11.7071C5.90236 11.3166 5.90236 10.6834 6.29291 10.2929C6.68346 9.90241 7.31661 9.90236 7.70711 10.2929L10 12.5858Z" fill="#42B983"/>
</svg>
