<svg viewBox="0 0 16 14" fill="none">
<path fill-rule="evenodd" clip-rule="evenodd" d="M15.6802 10.5296C16.5957 12.0582 15.4364 14 13.5888 14H2.39432C0.546691 14 -0.592847 12.0773 0.322735 10.5296L5.9315 1.16077C6.84379 -0.386925 9.1591 -0.386925 10.0747 1.16077L15.6802 10.5296ZM8.80257 8.31432C8.77639 8.70067 8.49745 9 8.01309 9C7.52873 9 7.26558 8.72155 7.23503 8.33521C7.23503 8.33521 6.8 4.55888 6.8 4.19786C6.8 3.59095 7.36452 3 8.01309 3C8.66167 3 9.2 3.57928 9.2 4.19786C9.2 4.51753 8.80257 8.31432 8.80257 8.31432ZM9 11C9 11.5523 8.55229 12 8 12C7.44772 12 7 11.5523 7 11C7 10.4477 7.44772 10 8 10C8.55229 10 9 10.4477 9 11Z" fill="#FFCA28"/>
</svg> 
